PathFileType	4	(X/Y/Z)	Patient4_TMGait_0pt2_02_left_09.trc.trc
DataRate	CameraRate	NumFrames	NumMarkers	Units	OrigDataRate	OrigDataStartFrame	OrigNumFrames
41.791044776119	41.791044776119	6	33	mm	41.791044776119	124	       141
Frame#	Time	R.Midfoot.Superior			Sacral			L.Shoulder			Chest			R.Shoulder			Neck			R.ASIS			L.ASIS			R.Thigh.Superior			R.Thigh.Lateral			R.Thigh.Inferior			R.Patella			L.Thigh.Superior			L.Thigh.Lateral			L.Thigh.Inferior			L.Patella			L.Shank.Superior			L.Shank.Lateral			L.Shank.Inferior			R.Shank.Superior			R.Shank.Lateral			R.Shank.Inferior			R.Heel			R.Midfoot.Lateral			R.Toe			L.Heel			L.Midfoot.Lateral			L.Midfoot.Superior			L.Toe			L.Elbow			L.Wrist			R.Elbow			R.Wrist			
		X1	Y1	Z1	X2	Y2	Z2	X3	Y3	Z3	X4	Y4	Z4	X5	Y5	Z5	X6	Y6	Z6	X7	Y7	Z7	X8	Y8	Z8	X9	Y9	Z9	X10	Y10	Z10	X11	Y11	Z11	X12	Y12	Z12	X13	Y13	Z13	X14	Y14	Z14	X15	Y15	Z15	X16	Y16	Z16	X17	Y17	Z17	X18	Y18	Z18	X19	Y19	Z19	X20	Y20	Z20	X21	Y21	Z21	X22	Y22	Z22	X23	Y23	Z23	X24	Y24	Z24	X25	Y25	Z25	X26	Y26	Z26	X27	Y27	Z27	X28	Y28	Z28	X29	Y29	Z29	X30	Y30	Z30	X31	Y31	Z31	X32	Y32	Z32	X33	Y33	Z33	

124	23.233214285714	903.777470744864	96.218379255663	604.288263375553	784.684312110574	1000.158311672136	646.379528838384	878.136040537892	1438.732257856767	417.875275177295	1042.002942059987	1354.316961239681	503.964020707274	1060.660509363184	1427.993525145509	694.463136283359	930.223668531046	1483.279899193988	574.390480015025	1035.664540810463	922.024318272583	658.864761980271	920.383507461778	965.620968202200	413.601295310866	1047.676290433169	719.902918702506	611.335759682928	981.670902621921	606.242768725654	685.109147785368	1029.541847205734	558.226342041840	582.757304131464	1024.452948076696	461.740748030127	586.988475086660	999.882845268455	770.823612637116	419.056990441928	926.652450397330	644.933478605916	352.017615023522	1033.847848767264	579.358601591339	390.462031265119	1051.342555221513	512.052660069388	382.826580315379	1030.434887037120	440.264693961086	368.397064607264	948.632807966694	321.952155953552	311.107593694893	1029.034314902241	210.225911386563	349.390777480146	972.679263078116	380.012590701897	598.597961882535	890.261344608373	290.124308961138	669.661730830349	896.322906748866	194.171587693793	597.921916065181	727.891196421792	46.907462772256	581.815945686641	816.474246915858	38.090125968717	649.184499541246	1023.367969268417	39.850772601811	622.817652480009	924.992487985274	47.368083790870	382.520664180891	993.515416611690	41.510875428552	298.054793518692	1079.306171285436	103.266520148566	316.290968810553	1203.211543948984	50.138574004355	280.114520466106	651.757014667061	1169.429393095449	417.679981611341	562.324021382693	940.549556346414	512.434399261491	1299.683976594208	1182.562591210442	751.909200877935	1484.595564070639	1283.217730068328	607.310890863867	
125	23.257142857143	899.276601947199	96.268653320611	604.165517965454	784.354776534960	999.279460253764	644.248195876108	875.879207833347	1438.503315845246	415.608417076624	1040.474010136372	1353.520253944817	499.700300126249	1061.385402517693	1426.998882875751	690.002257462699	929.478702978623	1482.490638313060	571.679734282058	1035.442470143953	921.355806294697	654.985952718931	918.364025904664	964.770578979197	410.604114140179	1046.887122881449	719.022146483270	608.147035273798	981.147569937462	605.553946397974	682.543929797947	1028.468956583514	557.211342050838	580.098509883758	1023.000392335761	460.456747431254	584.700868045503	997.733646327606	768.762083579849	415.599974015715	922.817655000968	642.774836364917	350.655893199656	1030.033619916673	576.981917641089	388.542448506541	1046.481123932024	509.649598478802	381.996271983606	1026.180104833878	438.080973348057	367.624600040291	944.703232661307	319.629953238659	310.497783332616	1024.731487794662	208.044338526663	349.547496417811	970.579549924274	379.103034831434	596.803480705654	887.572311292214	290.186834994876	668.534305902026	892.728845108938	193.903126859169	597.238091536550	723.234071312583	47.356397052848	581.851713924787	811.817812609277	38.320915241832	649.176678662887	1018.683646049644	39.684885107780	622.844179958104	920.275913869306	45.565655595627	382.805720574082	988.980255093596	40.024714597562	298.418577500141	1074.762119201708	101.595154333003	317.145671473325	1198.828234335938	48.539399352233	281.049242583529	647.920457963937	1170.989424903930	418.275072150022	557.557477492731	942.955100629925	514.253481442038	1303.328925745444	1185.037147370180	744.383744726300	1481.724235813741	1293.905714092477	597.712474974913	
126	23.281071428571	894.790559101639	96.333784830523	604.039849828463	784.037868940487	998.461803746756	641.977572365194	873.742303737564	1438.238225676767	413.112428019684	1039.029515637819	1352.772213467038	495.330921565951	1062.035546869644	1426.023604156822	685.443127010888	928.847031364508	1481.757553466011	568.748089714585	1035.246001830678	920.700367617371	650.902891644584	916.306077683747	963.944408085245	407.438738263826	1046.049762806103	718.163189656669	604.682703641600	980.643705494962	604.904736512696	679.764943072746	1027.296367874328	556.221788280656	577.196083097958	1021.465101976758	459.223659912867	582.206414426546	995.692678383145	766.930201517381	411.982654328429	919.307862290315	640.830619497922	349.091237418616	1026.602223779557	574.867304305721	386.408066176027	1042.076342050335	507.456570695824	380.828127699032	1022.162020017649	436.039768634948	366.586482768549	940.646523117663	317.597270120757	309.884089295461	1020.109705264499	205.988150236325	349.595934235951	968.410450299184	378.242842167409	594.873648291397	884.856074100786	290.311808835534	667.311604253263	889.114355965430	193.680743330765	596.504611782177	718.580589281870	47.862095170617	581.915022721983	807.174368796491	38.593410752997	649.194356446325	1014.003613912659	39.527077885197	622.867885027841	915.048868133231	43.789118368011	383.125224223135	983.762276987404	38.747090889464	298.675941304598	1069.501410911844	100.247656920807	317.808773779137	1193.720869319990	47.441004224400	281.477891002759	644.800922759840	1171.889881284755	417.815643161246	553.859740067741	944.324949536611	514.327246376512	1306.272379332533	1186.865487670920	737.034850770621	1478.887214031117	1302.309075283755	588.638831307267	
127	23.305000000000	890.311012021135	96.422980572700	603.935042524668	783.707230170240	997.871480976587	639.560689815951	871.733638605204	1438.071034129372	410.391229464049	1037.677129393003	1352.188708403960	490.858224701774	1062.623569726938	1425.187590503359	680.790570814042	928.326510202905	1481.198891885712	565.619358748799	1035.009086846476	920.163537789052	646.630735780770	914.208890047041	963.278179531998	404.106370616286	1045.025938970694	717.396647480357	601.014436102872	979.962779817650	604.402639313778	676.858200954787	1025.826782902108	555.332539367345	574.161288505274	1019.639267990572	458.144339787579	579.639155287047	993.714218737887	765.480130783968	408.266459237431	916.120499883319	639.236812042509	347.301644560034	1023.527933554797	573.149996599169	384.072137606902	1038.150298680155	505.630881422410	379.332088226403	1018.439857877717	434.292396361643	365.301207741853	936.633814253533	315.946493475179	309.221355251713	1015.409594015315	204.205132316837	349.518012977113	966.003163890200	377.532523961291	592.917106106563	881.971804676698	290.553317069551	666.068761143086	885.407764300093	193.564339999855	595.776925971793	713.921559963386	48.448801831336	582.014992795930	802.533894039934	38.913975762554	649.242632277600	1009.316040779980	39.373866364613	622.890022652468	909.606769220987	42.212677238907	383.425961138822	978.216096286072	37.737158302571	298.827354394432	1063.901959493852	99.244709354313	318.270524373482	1188.257673361838	46.740201877840	281.523993963915	642.332194131969	1172.305754901071	416.386019849396	551.195653085574	944.834863502430	512.819685340665	1308.575497307643	1188.180615512033	729.830886631834	1476.297959296061	1308.623778250567	579.998863616151	
128	23.328928571429	885.826918552184	96.545273211708	603.872258986235	783.317575969577	997.629370232931	636.956297181602	869.878267976493	1438.101355437723	407.434049243847	1036.427126526218	1351.846449399800	486.287654830935	1063.146696268416	1424.572321902847	676.053865727090	927.909241825998	1480.895540124067	562.309863427313	1034.653603633329	919.824077523730	642.197935126794	912.090869877604	962.866588627862	400.599945924636	1043.707332487023	716.778771586062	597.226793990261	978.942523143677	604.130815366391	673.907787682269	1023.923189416402	554.603137592704	571.105369401731	1017.379351487369	457.296154157640	577.124151122743	991.769653006625	764.500043949370	404.521819585415	913.251593388530	638.069851621921	345.279241090452	1020.773340499600	571.900048117264	381.580861588228	1034.696127728758	504.252597613455	377.559833201639	1015.039498801258	432.923548458238	363.815519506901	932.791076509944	314.721592394658	308.481472558420	1010.801001308014	202.784526693576	349.323449105223	963.240296896756	377.047761857761	591.029348615147	878.812327323081	290.954847993228	664.870296917850	881.556942446824	193.600407086936	595.103221594950	709.244770124440	49.141196639935	582.156550629919	797.881413645117	39.288257686961	649.323110384592	1004.605051130684	39.219476679703	622.912171527104	904.154531239224	40.960940778087	383.678558743927	972.599905519359	37.025237915226	298.892390505191	1058.250231591996	98.565789492184	318.552172885310	1182.709103184139	46.299906584876	281.317683666902	640.436346878987	1172.422576785571	414.090213318092	549.482744689876	944.707806066894	509.961309991999	1310.311238297177	1189.121461303550	722.745917836396	1474.105522432649	1313.105664542044	571.701558820522	
129	23.352857142857	881.323599887324	96.707607278833	603.866473141912	782.808645817214	997.796962328576	634.096513563443	868.212274749246	1438.382717510484	404.215543584340	1035.290043382195	1351.775375675325	481.627546150840	1063.584602766629	1424.212939039456	671.247112452236	927.579567668698	1480.883096031381	558.824107007097	1034.099661901881	919.724441552354	637.644190287603	909.985053901709	962.752372279810	396.907299261192	1042.026036691777	716.342829936950	593.409092086837	977.466512095312	604.138071273774	670.986261156371	1021.516850275075	554.068919259066	568.127618108715	1014.613232551613	456.722033774051	574.763014971576	989.845093431598	764.003173249982	400.814787391459	910.687050413055	637.340385769220	343.027774045699	1018.289819617090	571.118294265730	378.998362724544	1031.677130044049	503.324139694130	375.586557699092	1011.951284789587	431.949245859357	362.189516932609	929.188474387850	313.913963963012	307.649758480334	1006.376658529044	201.751873148191	349.039688791567	960.061517559563	376.830306632663	589.281961437544	875.310203890268	291.542411962865	663.761880693338	877.530763719804	193.815559842776	594.518172731740	704.534760185727	49.957914278012	582.339084104711	793.197122868099	39.719188062972	649.433419021555	999.851022665442	39.057866179795	622.935960973763	898.807072548970	40.093838949929	383.874053126996	967.070823766158	36.608136287886	298.900515490680	1052.726969491205	98.160630702639	318.694695223306	1177.241955449332	45.984052683316	280.977241091461	639.026648199243	1172.414119643814	411.035692545644	548.586912696605	944.189271239329	506.016424449962	1311.552853417310	1189.815466478074	715.767867372819	1472.386340482810	1316.045767842270	563.674450681731	
